<svg width="128" height="128" viewBox="0 0 128 128" fill="none" xmlns="http://www.w3.org/2000/svg">
<g opacity="0.2" filter="url(#filter0_bd_1_609)">
<circle cx="64" cy="60" r="41" fill="url(#paint0_linear_1_609)" shape-rendering="crispEdges"/>
<circle cx="64" cy="60" r="40.5" stroke="url(#paint1_linear_1_609)" shape-rendering="crispEdges"/>
</g>
<path d="M71.0095 73.2645C69.25 63 64.75 54 58.75 45.945M49.1005 58.26C55 58.5 68.9245 57.75 74.713 49.5M78.952 61.215C69.016 58.26 57.25 63 53.845 71.0415M49 60C49 68.2845 55.7155 75 64 75C72.2845 75 79 68.2845 79 60C79 51.7155 72.2845 45 64 45C55.7155 45 49 51.7155 49 60Z" stroke="white" stroke-width="2" stroke-linecap="round" stroke-linejoin="round"/>
<defs>
<filter id="filter0_bd_1_609" x="-17" y="-21" width="162" height="162" filterUnits="userSpaceOnUse" color-interpolation-filters="sRGB">
<feFlood flood-opacity="0" result="BackgroundImageFix"/>
<feGaussianBlur in="BackgroundImageFix" stdDeviation="20"/>
<feComposite in2="SourceAlpha" operator="in" result="effect1_backgroundBlur_1_609"/>
<feColorMatrix in="SourceAlpha" type="matrix" values="0 0 0 0 0 0 0 0 0 0 0 0 0 0 0 0 0 0 127 0" result="hardAlpha"/>
<feMorphology radius="1" operator="erode" in="SourceAlpha" result="effect2_dropShadow_1_609"/>
<feOffset dy="4"/>
<feGaussianBlur stdDeviation="12"/>
<feComposite in2="hardAlpha" operator="out"/>
<feColorMatrix type="matrix" values="0 0 0 0 0 0 0 0 0 0 0 0 0 0 0 0 0 0 0.1 0"/>
<feBlend mode="normal" in2="effect1_backgroundBlur_1_609" result="effect2_dropShadow_1_609"/>
<feBlend mode="normal" in="SourceGraphic" in2="effect2_dropShadow_1_609" result="shape"/>
</filter>
<linearGradient id="paint0_linear_1_609" x1="27" y1="13" x2="105" y2="110" gradientUnits="userSpaceOnUse">
<stop stop-color="white" stop-opacity="0.4"/>
<stop offset="1" stop-color="white" stop-opacity="0.1"/>
</linearGradient>
<linearGradient id="paint1_linear_1_609" x1="41.0458" y1="19" x2="112.475" y2="57.2464" gradientUnits="userSpaceOnUse">
<stop stop-color="white" stop-opacity="0.5"/>
<stop offset="1" stop-color="white" stop-opacity="0.1"/>
</linearGradient>
</defs>
</svg>
