<svg width="128" height="128" viewBox="0 0 128 128" fill="none" xmlns="http://www.w3.org/2000/svg">
<g opacity="0.2" filter="url(#filter0_bd_1_606)">
<circle cx="64" cy="60" r="41" fill="url(#paint0_linear_1_606)" shape-rendering="crispEdges"/>
<circle cx="64" cy="60" r="40.5" stroke="url(#paint1_linear_1_606)" shape-rendering="crispEdges"/>
</g>
<path d="M80.5 46.5151C80.5 46.5151 77.473 48.3031 75.79 48.8101C74.8866 47.7713 73.686 47.0351 72.3506 46.701C71.0151 46.3668 69.6092 46.4509 68.3231 46.9418C67.037 47.4327 65.9327 48.3067 65.1595 49.4457C64.3863 50.5846 63.9815 51.9336 64 53.3101V54.8101C61.364 54.8784 58.7519 54.2938 56.3965 53.1083C54.0411 51.9227 52.0155 50.173 50.5 48.0151C50.5 48.0151 44.5 61.5151 58 67.5151C54.9108 69.612 51.2307 70.6635 47.5 70.5151C61 78.0151 77.5 70.5151 77.5 53.2651C77.5 52.8481 77.458 52.4311 77.38 52.0201C78.91 50.5111 80.5 46.5151 80.5 46.5151Z" stroke="white" stroke-width="2" stroke-linecap="round" stroke-linejoin="round"/>
<defs>
<filter id="filter0_bd_1_606" x="-17" y="-21" width="162" height="162" filterUnits="userSpaceOnUse" color-interpolation-filters="sRGB">
<feFlood flood-opacity="0" result="BackgroundImageFix"/>
<feGaussianBlur in="BackgroundImageFix" stdDeviation="20"/>
<feComposite in2="SourceAlpha" operator="in" result="effect1_backgroundBlur_1_606"/>
<feColorMatrix in="SourceAlpha" type="matrix" values="0 0 0 0 0 0 0 0 0 0 0 0 0 0 0 0 0 0 127 0" result="hardAlpha"/>
<feMorphology radius="1" operator="erode" in="SourceAlpha" result="effect2_dropShadow_1_606"/>
<feOffset dy="4"/>
<feGaussianBlur stdDeviation="12"/>
<feComposite in2="hardAlpha" operator="out"/>
<feColorMatrix type="matrix" values="0 0 0 0 0 0 0 0 0 0 0 0 0 0 0 0 0 0 0.1 0"/>
<feBlend mode="normal" in2="effect1_backgroundBlur_1_606" result="effect2_dropShadow_1_606"/>
<feBlend mode="normal" in="SourceGraphic" in2="effect2_dropShadow_1_606" result="shape"/>
</filter>
<linearGradient id="paint0_linear_1_606" x1="23" y1="13" x2="101.5" y2="103" gradientUnits="userSpaceOnUse">
<stop stop-color="white" stop-opacity="0.4"/>
<stop offset="1" stop-color="white" stop-opacity="0.1"/>
</linearGradient>
<linearGradient id="paint1_linear_1_606" x1="41.0458" y1="19" x2="112.475" y2="57.2464" gradientUnits="userSpaceOnUse">
<stop stop-color="white" stop-opacity="0.5"/>
<stop offset="1" stop-color="white" stop-opacity="0.1"/>
</linearGradient>
</defs>
</svg>
